<svg xmlns="http://www.w3.org/2000/svg"  viewBox="0 0 24 24" width="48px" height="48px" baseProfile="basic"><linearGradient id="jbyl34g2iPp7qCORkp8lYa" x1="4.798" x2="19.204" y1="3.849" y2="18.255" gradientUnits="userSpaceOnUse"><stop offset="0" stop-color="#fff" stop-opacity=".6"/><stop offset="1" stop-color="#fff" stop-opacity=".3"/></linearGradient><path fill="url(#jbyl34g2iPp7qCORkp8lYa)" d="M24,10.5c0,2.47-2.03,4.5-4.5,4.5c-0.99,0-1.9-0.33-2.64-0.88c-0.41,0.5-0.95,0.92-1.61,1.23 c1.07,0.57,2.31,1.8,2.72,3.47c0.15,0.6-0.28,1.18-0.89,1.18H6.92c-0.61,0-1.04-0.58-0.89-1.18c0.41-1.67,1.65-2.9,2.72-3.47 c-0.66-0.31-1.2-0.73-1.61-1.23C6.4,14.67,5.49,15,4.5,15C2.03,15,0,12.98,0,10.5C0,8.03,2.03,6,4.5,6c0.99,0,1.9,0.33,2.64,0.88 C8.08,5.73,9.64,5,12,5s3.92,0.73,4.86,1.88C17.6,6.33,18.51,6,19.5,6C21.97,6,24,8.02,24,10.5z"/><linearGradient id="jbyl34g2iPp7qCORkp8lYb" x1="4.798" x2="19.204" y1="3.849" y2="18.255" gradientUnits="userSpaceOnUse"><stop offset="0" stop-color="#fff" stop-opacity=".6"/><stop offset=".493" stop-color="#fff" stop-opacity="0"/><stop offset=".997" stop-color="#fff" stop-opacity=".3"/></linearGradient><path fill="url(#jbyl34g2iPp7qCORkp8lYb)" d="M12,5.5c2.048,0,3.553,0.571,4.473,1.696l0.302,0.37l0.383-0.285 C17.846,6.77,18.656,6.5,19.5,6.5c2.206,0,4,1.794,4,4s-1.794,4-4,4c-0.844,0-1.654-0.27-2.342-0.781l-0.383-0.284l-0.302,0.369 c-0.372,0.453-0.855,0.821-1.436,1.094l-0.904,0.424l0.881,0.469c0.9,0.48,2.087,1.592,2.47,3.15c0.036,0.143,0.007,0.289-0.08,0.4 c-0.046,0.059-0.15,0.158-0.325,0.158H6.92c-0.175,0-0.279-0.099-0.325-0.158c-0.087-0.111-0.116-0.257-0.08-0.403 c0.382-1.556,1.569-2.668,2.469-3.148l0.881-0.469l-0.904-0.424c-0.581-0.273-1.064-0.641-1.436-1.094l-0.302-0.369l-0.383,0.284 C6.154,14.23,5.344,14.5,4.5,14.5c-2.206,0-4-1.794-4-4s1.794-4,4-4c0.844,0,1.654,0.27,2.342,0.781l0.383,0.285l0.302-0.37 C8.447,6.071,9.952,5.5,12,5.5 M12,5C9.64,5,8.08,5.73,7.14,6.88C6.4,6.33,5.49,6,4.5,6C2.03,6,0,8.03,0,10.5 C0,12.98,2.03,15,4.5,15c0.99,0,1.9-0.33,2.64-0.88c0.41,0.5,0.95,0.92,1.61,1.23c-1.07,0.57-2.31,1.8-2.72,3.47 C5.88,19.42,6.31,20,6.92,20h10.16c0.61,0,1.04-0.58,0.89-1.18c-0.41-1.67-1.65-2.9-2.72-3.47c0.66-0.31,1.2-0.73,1.61-1.23 C17.6,14.67,18.51,15,19.5,15c2.47,0,4.5-2.03,4.5-4.5C24,8.02,21.97,6,19.5,6c-0.99,0-1.9,0.33-2.64,0.88C15.92,5.73,14.36,5,12,5 L12,5z"/><linearGradient id="jbyl34g2iPp7qCORkp8lYc" x1="2.724" x2="6.241" y1="8.741" y2="12.259" gradientUnits="userSpaceOnUse"><stop offset="0" stop-color="#fff" stop-opacity=".7"/><stop offset=".519" stop-color="#fff" stop-opacity=".45"/><stop offset="1" stop-color="#fff" stop-opacity=".55"/></linearGradient><path fill="url(#jbyl34g2iPp7qCORkp8lYc)" d="M6,10.5c0,0.62,0.07,1.22,0.22,1.78C5.77,12.71,5.17,13,4.5,13C3.12,13,2,11.88,2,10.5	S3.12,8,4.5,8c0.67,0,1.27,0.29,1.72,0.72C6.07,9.28,6,9.88,6,10.5z"/><linearGradient id="jbyl34g2iPp7qCORkp8lYd" x1="17.759" x2="21.276" y1="8.741" y2="12.259" gradientUnits="userSpaceOnUse"><stop offset="0" stop-color="#fff" stop-opacity=".7"/><stop offset=".519" stop-color="#fff" stop-opacity=".45"/><stop offset="1" stop-color="#fff" stop-opacity=".55"/></linearGradient><path fill="url(#jbyl34g2iPp7qCORkp8lYd)" d="M22,10.5c0,1.38-1.12,2.5-2.5,2.5c-0.67,0-1.27-0.29-1.72-0.72C17.93,11.72,18,11.12,18,10.5	s-0.07-1.22-0.22-1.78C18.23,8.29,18.83,8,19.5,8C20.88,8,22,9.12,22,10.5z"/><linearGradient id="jbyl34g2iPp7qCORkp8lYe" x1="9.161" x2="14.839" y1="7.661" y2="13.339" gradientUnits="userSpaceOnUse"><stop offset="0" stop-color="#fff" stop-opacity=".7"/><stop offset=".519" stop-color="#fff" stop-opacity=".45"/><stop offset="1" stop-color="#fff" stop-opacity=".55"/></linearGradient><path fill="url(#jbyl34g2iPp7qCORkp8lYe)" d="M12,7c-2.73,0-4,1.11-4,3.5S9.27,14,12,14s4-1.11,4-3.5S14.73,7,12,7z M9.5,8h1	C10.78,8,11,8.22,11,8.5C11,8.78,10.78,9,10.5,9h-1C9.22,9,9,8.78,9,8.5C9,8.22,9.22,8,9.5,8z M10,12c-0.55,0-1-0.45-1-1s0.45-1,1-1	c0.15,0,0.28,0.04,0.41,0.09c-0.06,0.06-0.1,0.15-0.1,0.25c0,0.21,0.14,0.35,0.35,0.35c0.1,0,0.19-0.04,0.25-0.1	C10.96,10.72,11,10.85,11,11C11,11.55,10.55,12,10,12z M11,13l1-1l1,1H11z M14,12c-0.55,0-1-0.45-1-1s0.45-1,1-1	c0.15,0,0.28,0.04,0.41,0.09c-0.06,0.06-0.1,0.15-0.1,0.25c0,0.21,0.14,0.35,0.35,0.35c0.1,0,0.19-0.04,0.25-0.1	C14.96,10.72,15,10.85,15,11C15,11.55,14.55,12,14,12z M14.5,9h-1C13.22,9,13,8.78,13,8.5C13,8.22,13.22,8,13.5,8h1	C14.78,8,15,8.22,15,8.5C15,8.78,14.78,9,14.5,9z"/></svg>